# xmcd CD database file
#
# Track frame offsets:
#	150
#	16617
#	29844
#	42554
#	56807
#	63858
#	74493
#	86922
#	101038
#	115748
#	129181
#	141380
#	155941
#	170938
#	185307
#	199031
#	213417
#	225968
#	239584
#	259396
#	272008
#	285888
#
# Disc length: 3981 seconds
#
# Revision: 2
# Processed by: cddbd v1.5.1PL0 Copyright (c) Steve Scherf et al.
# Submitted via: CDex 1.51
#
DISCID=4f0f8b16
DTITLE=Various Artist - Classic Slide Guitar Blues
DYEAR=1900
DGENRE=Blues
TTITLE0=Willie Harris - Never Drive A Stranger From Your Door
TTITLE1=Blind Willie Mctell - Mamma Tain'T Long Fo'Day
TTITLE2=The Guitar Evangelist - The Gospel Train Is Coming
TTITLE3=Blind Willie Johnson - It'S Nobody'S Fault But Mine
TTITLE4=Allison Mathis - Mama You Goin' To Quit Me Good As I Been To You
TTITLE5=Bukka White - Good Gin Blues
TTITLE6=Kansas Joe - My Wash Woman's Gone
TTITLE7=Curley Weaver - No No Blues
TTITLE8=Barbecue Bob - Jambooger Blues
TTITLE9=Bobby Grant - Lonesome Atlanta Blues
TTITLE10=Jelly Roll Anderson - Good Times Blues
TTITLE11=Rambling Thomas - Ground Hog Blues No.Two
TTITLE12=King Solomon Hill - The Gone Dead Train
TTITLE13=Oscar Woods - Evil Hearted Woman Blues
TTITLE14=Black Ace - Whiskey And Women
TTITLE15=Tampa Red - Boogie Woogie Dance
TTITLE16=Irene Scruggs - Borrowed Love
TTITLE17=Robert Lockwood - Little Boy Blue
TTITLE18=Leadbelly - Matchbox Blues
TTITLE19=Furry Lewis - Falling Down Blues
TTITLE20=Charlie Patton - Prayer Of Death Part One
TTITLE21=Charlie Patton - Prayer Of Death Part Two
EXTD=
EXTT0=
EXTT1=
EXTT2=
EXTT3=
EXTT4=
EXTT5=
EXTT6=
EXTT7=
EXTT8=
EXTT9=
EXTT10=
EXTT11=
EXTT12=
EXTT13=
EXTT14=
EXTT15=
EXTT16=
EXTT17=
EXTT18=
EXTT19=
EXTT20=
EXTT21=
PLAYORDER=
